# xmcd
#
# Track frame offsets: 
#        150
#        11253
#        24291
#        36673
#        49365
#        63915
#        79187
#        92062
#        105946
#        116916
#        138520
#        155030
#        177518
#        194288
#        212470
#        232948
#        257250
#        275903
#        298120
#        313382
#        327729
#        339001
#
# Disc length: 4713 seconds
#
# Revision: 1
# Processed by: cddbd v1.5.2PL0 Copyright (c) Steve Scherf et al.
# Submitted via: ExactAudioCopy v0.99pb5
#
DISCID=42126716
DTITLE=Cy Laurie - Vintage Cy Laurie Vol.2
DYEAR=2008
DGENRE=Jazz
TTITLE0=Mad Dog
TTITLE1=Goober Dance
TTITLE2=Dippermouth Blues
TTITLE3=Snake Rag
TTITLE4=The Chant
TTITLE5=Tuxedo Junction
TTITLE6=Gatemouth
TTITLE7=King Of The Zulus
TTITLE8=The Girls Go Crazy
TTITLE9=Ole Miss Rag
TTITLE10=Memphis Shake
TTITLE11=Lonesome Blues
TTITLE12=Bow Tie Breakdown
TTITLE13=Dippermouth Blues
TTITLE14=You Made Me Love You
TTITLE15=Froggie Moore Rag
TTITLE16=Weeping
TTITLE17=Cootie Stomp
TTITLE18=Blue Blood Blues
TTITLE19=Sock That Thing
TTITLE20=Bull Fiddle Blues
TTITLE21=Sunset Cafe Stomp
EXTD=Lake Records, PO BOX 40, Worrington, Cumbria, CA14 3GJ,UK\r\non 1
EXTD=9: Cy Laurie-cl,Alan Elsdon-tp,Graham Stewart-tb,Ian Armit-p,Bri
EXTD=an Munday-bjo,3&4 add Pete Arnold-tp,Stan Leader-b,Pete Mawford-d
EXTD=r,on 7: Diz Dizley-g repl. Munday\r\non 10-22:Cy Laurie-cl,Ken Si
EXTD=ms-tp,Tery Pitts-tb,Anne Varley-p,Pat Wade-bjo,Stan Leader-b,Viv 
EXTD=Carter-dr
EXTT0=Armstrong
EXTT1=Hardin
EXTT2=Armstrong/Oliver
EXTT3=Oliver
EXTT4=Stitzel
EXTT5=Hawkins/Johnson/Dash/Feyne
EXTT6=Armstrong
EXTT7=Armstrong
EXTT8=trad.
EXTT9=Handy
EXTT10=Hayes
EXTT11=Armstrong
EXTT12=Laurie
EXTT13=Armstrong/Oliver
EXTT14=Venable/Armstrong
EXTT15=Morton
EXTT16=Laurie
EXTT17=Clark
EXTT18=Morton
EXTT19=Blythe
EXTT20=Dodds
EXTT21=Armstrong
PLAYORDER=
